<svg width="24" height="24" viewBox="0 0 24 24" fill="none" xmlns="http://www.w3.org/2000/svg">
<path d="M10.9999 12.59L8.7099 10.29C8.61694 10.1963 8.50634 10.1219 8.38448 10.0711C8.26262 10.0203 8.13191 9.9942 7.9999 9.9942C7.86789 9.9942 7.73718 10.0203 7.61532 10.0711C7.49346 10.1219 7.38286 10.1963 7.2899 10.29C7.19617 10.383 7.12178 10.4936 7.07101 10.6154C7.02024 10.7373 6.9941 10.868 6.9941 11C6.9941 11.132 7.02024 11.2627 7.07101 11.3846C7.12178 11.5064 7.19617 11.617 7.2899 11.71L11.2899 15.71C11.385 15.801 11.4971 15.8724 11.6199 15.92C11.8634 16.02 12.1364 16.02 12.3799 15.92C12.5027 15.8724 12.6148 15.801 12.7099 15.71L16.7099 11.71C16.8031 11.6168 16.8771 11.5061 16.9276 11.3842C16.978 11.2624 17.004 11.1319 17.004 11C17.004 10.8681 16.978 10.7376 16.9276 10.6158C16.8771 10.4939 16.8031 10.3832 16.7099 10.29C16.6167 10.1968 16.506 10.1228 16.3841 10.0723C16.2623 10.0219 16.1318 9.99591 15.9999 9.99591C15.868 9.99591 15.7375 10.0219 15.6157 10.0723C15.4938 10.1228 15.3831 10.1968 15.2899 10.29L12.9999 12.59L12.9999 3C12.9999 2.73478 12.8945 2.48043 12.707 2.29289C12.5195 2.10536 12.2651 2 11.9999 2C11.7347 2 11.4803 2.10536 11.2928 2.29289C11.1053 2.48043 10.9999 2.73478 10.9999 3L10.9999 12.59ZM21.9999 12C22.0082 10.1311 21.4927 8.29724 20.5117 6.70647C19.5307 5.11569 18.1236 3.83165 16.4499 3C16.2112 2.88065 15.9349 2.86101 15.6817 2.94541C15.4285 3.0298 15.2192 3.2113 15.0999 3.45C14.9806 3.68869 14.9609 3.96502 15.0453 4.2182C15.1297 4.47137 15.3112 4.68065 15.5499 4.8C16.8266 5.43219 17.9113 6.39383 18.6919 7.58555C19.4725 8.77727 19.9208 10.1558 19.9903 11.5788C20.0598 13.0017 19.7481 14.4174 19.0874 15.6795C18.4267 16.9417 17.4409 18.0045 16.2319 18.7581C15.0229 19.5118 13.6347 19.9289 12.2105 19.9664C10.7864 20.0039 9.37806 19.6605 8.13109 18.9715C6.88412 18.2826 5.84374 17.2731 5.11747 16.0475C4.39121 14.8219 4.00539 13.4246 3.9999 12C3.99344 10.5089 4.40754 9.04615 5.19465 7.77969C5.98177 6.51323 7.11001 5.49435 8.4499 4.84C8.68859 4.72065 8.8701 4.51137 8.95449 4.2582C9.03888 4.00502 9.01925 3.72869 8.8999 3.49C8.78055 3.2513 8.57127 3.0698 8.3181 2.98541C8.06492 2.90101 7.78859 2.92065 7.5499 3.04C5.95439 3.83283 4.59967 5.03752 3.62585 6.52947C2.65204 8.02142 2.09451 9.74645 2.01091 11.5261C1.92732 13.3058 2.32071 15.0755 3.15039 16.6521C3.98007 18.2288 5.21591 19.5552 6.73008 20.4941C8.24425 21.433 9.98176 21.9503 11.7629 21.9925C13.544 22.0347 15.3041 21.6003 16.8611 20.7342C18.418 19.8682 19.7153 18.6018 20.6188 17.0663C21.5223 15.5307 21.9991 13.7816 21.9999 12Z" fill="white"/>
</svg>
