<svg width="24" height="24" viewBox="0 0 24 24" fill="none" xmlns="http://www.w3.org/2000/svg">
<path d="M10.9364 2C8.35653 2.00731 5.87798 2.99891 4.01271 4.77V3C4.01271 2.73478 3.90669 2.48043 3.71796 2.29289C3.52923 2.10536 3.27326 2 3.00636 2C2.73945 2 2.48348 2.10536 2.29475 2.29289C2.10603 2.48043 2 2.73478 2 3V7.5C2 7.76522 2.10603 8.01957 2.29475 8.20711C2.48348 8.39464 2.73945 8.5 3.00636 8.5H7.53496C7.80186 8.5 8.05783 8.39464 8.24656 8.20711C8.43529 8.01957 8.54131 7.76522 8.54131 7.5C8.54131 7.23478 8.43529 6.98043 8.24656 6.79289C8.05783 6.60536 7.80186 6.5 7.53496 6.5H5.1197C6.03721 5.53701 7.18123 4.81576 8.44886 4.40114C9.71649 3.98651 11.068 3.89152 12.3817 4.1247C13.6954 4.35788 14.9303 4.91193 15.975 5.73699C17.0198 6.56205 17.8418 7.63226 18.3671 8.85133C18.8923 10.0704 19.1044 11.4001 18.9842 12.7208C18.8639 14.0415 18.4152 15.3118 17.6783 16.4174C16.9414 17.5231 15.9394 18.4293 14.7626 19.0547C13.5858 19.68 12.271 20.0049 10.9364 20C10.6695 20 10.4136 20.1054 10.2248 20.2929C10.0361 20.4804 9.93008 20.7348 9.93008 21C9.93008 21.2652 10.0361 21.5196 10.2248 21.7071C10.4136 21.8946 10.6695 22 10.9364 22C13.6055 22 16.1652 20.9464 18.0525 19.0711C19.9397 17.1957 21 14.6522 21 12C21 9.34784 19.9397 6.8043 18.0525 4.92893C16.1652 3.05357 13.6055 2 10.9364 2Z" fill="#4087EB"/>
</svg>
